<?xml version="1.0" standalone="no"?>
<!DOCTYPE svg PUBLIC "-//W3C//DTD SVG 20010904//EN"
 "http://www.w3.org/TR/2001/REC-SVG-20010904/DTD/svg10.dtd">
<svg version="1.0" xmlns="http://www.w3.org/2000/svg"
 width="300px" height="100px" viewBox="0 0 698.000000 328.000000"
 preserveAspectRatio="xMidYMid none">

<g transform="translate(0.000000,328.000000) scale(0.100000,-0.100000)"
fill="#000000" stroke="none">
<path d="M4875 2694 c-106 -54 -195 -327 -195 -595 0 -102 -1 -106 -27 -131
-16 -14 -38 -31 -50 -37 -24 -12 -77 -15 -71 -3 60 116 71 185 40 255 -37 83
-108 97 -184 36 l-38 -30 0 24 c0 34 -23 51 -57 42 -50 -12 -53 -20 -53 -140
l0 -113 -41 -41 c-46 -48 -82 -53 -87 -12 -2 13 6 75 18 139 24 127 20 157
-24 168 -35 8 -110 -29 -141 -71 -14 -17 -39 -56 -56 -86 -17 -30 -28 -43 -24
-29 3 14 8 57 12 96 5 68 4 73 -17 84 -56 30 -156 -45 -205 -153 -29 -63 -32
-39 -9 64 18 79 14 99 -18 99 -59 0 -79 -38 -102 -190 -13 -84 -17 -97 -45
-122 -37 -33 -67 -36 -76 -8 -3 11 3 74 15 140 11 67 18 125 15 131 -4 5 -23
9 -43 9 -27 0 -41 6 -50 21 -16 25 -56 22 -116 -6 -73 -35 -156 -162 -156
-240 0 -30 -56 -66 -115 -73 -39 -4 -48 -1 -75 26 -26 26 -30 38 -30 82 0 63
30 127 65 136 37 9 47 -3 40 -48 -5 -29 -3 -43 6 -49 66 -41 112 92 55 158
-21 25 -31 28 -80 27 -73 0 -129 -38 -168 -113 -37 -71 -40 -175 -5 -235 47
-83 170 -107 277 -54 51 26 55 26 67 9 35 -50 120 -50 178 0 33 29 34 30 45
10 12 -24 60 -51 88 -51 10 0 38 13 63 29 l45 28 17 -28 c17 -31 43 -37 70
-16 10 6 26 46 38 88 23 86 79 194 100 194 10 0 13 -11 12 -35 -10 -202 -9
-219 14 -242 19 -18 27 -20 50 -12 23 8 32 23 58 99 16 50 42 111 58 137 53
91 71 75 50 -45 -8 -48 -12 -103 -9 -122 9 -47 50 -78 98 -73 21 2 38 3 38 1
0 -1 -13 -42 -30 -91 -72 -214 -37 -363 78 -337 l30 6 -23 -63 c-13 -35 -29
-92 -35 -126 -12 -60 -14 -62 -44 -62 -38 0 -51 -8 -60 -37 -11 -35 10 -63 47
-63 l33 0 0 -83 c1 -132 34 -204 108 -238 65 -29 134 -22 198 23 31 22 38 22
38 5 0 -8 9 -22 20 -32 16 -15 26 -17 47 -9 22 8 31 24 58 108 32 97 76 175
104 184 15 5 14 -3 -5 -196 -6 -52 -4 -66 11 -82 20 -22 46 -25 74 -10 15 7
20 27 26 97 4 48 12 129 19 178 14 108 9 137 -26 149 -59 21 -144 -45 -196
-150 -14 -30 -30 -54 -34 -54 -4 0 -5 21 -1 47 5 37 17 60 53 103 178 208 233
425 126 495 -126 83 -268 -206 -283 -575 -5 -109 -8 -128 -27 -148 -52 -58
-121 -68 -166 -24 -23 23 -29 40 -35 99 -11 110 -8 113 83 113 99 0 127 14
127 60 l0 35 -58 3 -58 3 29 37 c54 69 75 122 79 202 4 63 1 80 -16 107 -25
40 -60 50 -102 29 -18 -9 -33 -15 -35 -13 -1 1 6 38 17 82 11 44 22 113 26
153 4 50 10 72 19 72 7 0 33 7 57 15 40 13 48 13 73 0 52 -27 120 -13 179 38
l39 33 37 -37 c44 -44 105 -59 162 -40 44 15 113 88 122 130 6 27 11 31 41 31
29 0 34 -3 34 -24 0 -31 38 -85 78 -113 72 -48 189 -39 278 21 l49 33 35 -39
c59 -65 147 -62 230 9 33 28 45 34 48 23 10 -30 60 -69 96 -76 78 -14 166 36
166 95 0 42 -15 47 -64 20 -54 -28 -92 -21 -110 22 -12 29 -11 34 32 97 53 79
121 219 154 317 30 92 33 246 5 288 -55 84 -150 46 -215 -87 -60 -124 -102
-324 -102 -492 0 -86 -1 -92 -27 -116 -71 -65 -132 -63 -156 5 -4 11 11 44 44
94 169 259 229 547 130 624 -32 26 -83 20 -119 -13 -95 -88 -172 -348 -172
-585 l0 -103 -55 -36 c-66 -44 -139 -56 -180 -30 -35 23 -32 32 20 46 102 29
166 112 151 196 -26 137 -225 116 -296 -31 -18 -37 -27 -45 -49 -45 -24 0 -28
6 -39 47 -14 51 -70 113 -102 113 -31 0 -30 13 7 68 91 137 109 315 36 372
-31 24 -58 25 -98 4z m49 -159 c-1 -73 -5 -90 -48 -186 -26 -59 -54 -115 -62
-125 -14 -17 -15 -12 -10 55 14 164 69 346 103 339 16 -3 18 -15 17 -83z m804
7 c4 -94 -23 -196 -86 -322 l-47 -95 -3 45 c-7 88 37 314 78 406 14 33 24 45
37 42 15 -3 19 -16 21 -76z m303 51 c24 -63 -21 -245 -95 -388 l-41 -80 -3 40
c-7 83 41 334 79 413 24 49 45 54 60 15z m-2681 -427 c0 -2 -9 -48 -20 -102
-23 -114 -44 -149 -86 -149 -40 0 -51 36 -34 112 10 46 21 67 55 101 23 23 52
42 64 42 11 0 21 -2 21 -4z m1530 -28 c0 -35 31 -111 49 -122 19 -12 12 -36
-18 -67 -36 -36 -64 -37 -98 -3 -23 23 -25 31 -21 96 3 64 7 73 36 99 42 37
52 36 52 -3z m438 -6 c4 -37 -15 -65 -60 -88 -57 -29 -73 -8 -44 59 19 47 44
69 75 65 21 -2 27 -9 29 -36z m-853 11 c36 -36 -9 -177 -69 -217 -43 -27 -46
-22 -46 76 0 90 1 93 32 125 36 37 58 41 83 16z m-229 -380 c-14 -196 -35
-287 -65 -281 -25 5 -20 143 7 235 27 85 50 143 58 143 4 0 3 -44 0 -97z m485
-287 c10 -37 -5 -116 -35 -182 -28 -62 -86 -148 -93 -140 -6 6 12 116 34 206
32 133 75 186 94 116z m-357 -93 c-1 -69 -35 -152 -79 -193 l-25 -23 0 29 c0
40 37 188 56 225 9 19 21 29 32 27 14 -3 17 -15 16 -65z"/>
<path d="M1623 2610 c-120 -28 -195 -131 -218 -302 -7 -50 1 -45 -94 -64 -26
-5 -31 -1 -60 51 -71 126 -160 187 -272 186 -106 0 -173 -53 -203 -160 -32
-114 -16 -231 40 -307 24 -33 94 -64 144 -64 26 0 25 -4 -99 -252 -70 -139
-138 -271 -153 -292 -28 -40 -28 -56 -1 -56 51 0 399 -104 516 -154 21 -9 59
-25 85 -35 l47 -19 3 82 c2 44 15 150 30 234 l27 153 72 -154 c39 -85 81 -186
94 -223 12 -38 24 -71 26 -73 1 -2 38 23 81 56 110 86 273 192 408 265 l115
63 -48 41 c-26 23 -79 78 -117 123 -48 56 -73 78 -81 71 -8 -6 -22 13 -48 66
-41 82 -98 150 -165 196 l-44 30 58 24 c104 42 160 102 151 161 -3 19 -1 33 6
36 16 5 -7 101 -40 163 -41 76 -74 112 -127 139 -51 26 -77 29 -133 15z m68
-332 c-119 -112 -136 -100 -24 17 64 66 78 77 81 60 3 -14 -13 -36 -57 -77z
m-248 -15 c-7 -2 -19 -2 -25 0 -7 3 -2 5 12 5 14 0 19 -2 13 -5z m-174 -26
c-2 -1 -13 -9 -24 -17 -19 -14 -19 -14 -6 3 7 9 18 17 24 17 6 0 8 -1 6 -3z
m-224 -77 c82 -41 93 -49 61 -44 -58 8 -143 43 -174 70 -46 40 1 29 113 -26z
m517 -117 c-23 -4 -23 -5 -5 -19 17 -14 17 -15 -2 -5 -49 25 -51 31 -10 29 24
0 31 -2 17 -5z m-141 -32 c-23 -19 -31 -32 -26 -41 9 -15 -3 -9 -48 24 l-29
21 59 11 c32 6 63 12 68 12 6 1 -5 -11 -24 -27z m-182 -41 c-36 -45 -48 -52
-23 -15 13 20 13 25 3 25 -11 1 29 24 49 29 2 1 -12 -17 -29 -39z m471 -117
c12 -32 24 -71 26 -88 3 -16 -6 3 -20 43 -13 41 -36 92 -51 115 -26 41 -26 42
-1 15 13 -15 34 -53 46 -85z m-710 -16 c-35 -78 -52 -167 -49 -263 1 -41 -1
-77 -4 -81 -13 -12 -7 172 7 238 13 58 59 169 71 169 2 0 -9 -28 -25 -63z
m161 -13 c-5 -16 -10 -21 -10 -12 -1 18 10 51 15 45 2 -1 -1 -16 -5 -33z m286
-16 c-2 -13 -4 -5 -4 17 -1 22 1 32 4 23 2 -10 2 -28 0 -40z m-273 -230 c8
-38 10 -68 7 -68 -9 0 -29 125 -35 215 l-5 70 10 -75 c6 -41 16 -105 23 -142z
m263 130 c-2 -13 -4 -3 -4 22 0 25 2 35 4 23 2 -13 2 -33 0 -45z m330 -67 c2
-3 15 6 31 19 20 18 19 16 -5 -10 -18 -19 -34 -32 -37 -29 -2 2 -6 29 -9 59
l-6 55 11 -45 c6 -25 13 -47 15 -49z m215 65 c4 3 8 0 8 -5 0 -14 -4 -14 -67
3 -28 8 -55 11 -59 7 -4 -3 -4 -1 -1 6 5 8 20 8 59 -2 28 -8 55 -12 60 -9z
m-555 -73 c-3 -10 -5 -2 -5 17 0 19 2 27 5 18 2 -10 2 -26 0 -35z m-388 -76
c-2 -2 -20 -14 -39 -26 l-35 -23 30 26 c17 14 34 26 39 26 5 0 7 -1 5 -3z"/>
<path d="M2086 1444 c-168 -96 -227 -135 -376 -246 l-106 -78 -27 -113 c-42
-172 -34 -270 21 -253 12 4 95 59 184 123 251 179 346 240 573 372 116 67 216
128 224 136 23 22 0 59 -52 83 -38 18 -241 62 -281 62 -6 0 -78 -39 -160 -86z"/>
<path d="M533 1281 c-146 -71 -211 -135 -170 -169 6 -5 106 -36 222 -67 298
-80 351 -97 618 -196 131 -49 249 -89 261 -89 17 0 26 7 30 25 10 39 -10 100
-72 215 l-55 105 -95 39 c-153 62 -312 115 -471 156 l-150 38 -118 -57z"/>
<path d="M2115 1095 c-55 -36 -112 -73 -127 -82 -35 -22 -35 -33 2 -68 24 -23
41 -29 87 -32 97 -7 160 42 170 130 5 43 -11 118 -25 117 -4 -1 -52 -30 -107
-65z"/>
<path d="M2938 1136 c-164 -59 -242 -329 -116 -406 42 -25 74 -25 117 1 18 11
35 18 38 15 3 -2 -42 -51 -99 -108 -114 -112 -151 -171 -152 -244 -1 -52 27
-95 72 -108 101 -29 183 76 242 307 l27 108 68 46 c60 42 68 45 77 30 42 -76
138 -86 199 -21 27 29 36 30 44 4 9 -29 61 -53 98 -46 17 3 45 17 62 31 l32
24 11 -24 c13 -29 56 -43 77 -25 8 6 26 48 40 93 15 45 33 93 40 108 22 41 66
90 76 83 5 -3 9 -29 9 -59 0 -44 4 -57 22 -69 12 -9 31 -16 41 -16 29 0 97 73
97 103 0 27 -23 57 -44 57 -8 0 -11 12 -8 35 6 49 -5 83 -28 90 -56 18 -145
-54 -199 -160 -35 -70 -38 -54 -12 62 10 44 15 87 11 93 -9 15 -73 6 -88 -13
-14 -17 -39 -120 -47 -194 -6 -55 -11 -66 -42 -93 -70 -62 -87 -20 -58 141 10
53 15 104 12 113 -4 11 -19 16 -46 16 -30 0 -40 4 -44 20 -7 27 -49 26 -112
-4 -78 -37 -138 -115 -151 -199 -6 -31 -16 -44 -62 -77 -31 -22 -57 -38 -58
-37 -1 1 7 52 17 112 10 61 18 127 19 148 0 36 -1 37 -38 37 -26 0 -41 6 -50
20 -14 23 -41 25 -94 6z m78 -88 c-3 -7 -12 -55 -21 -106 -19 -100 -42 -142
-80 -142 -37 0 -48 24 -42 86 9 90 70 172 129 174 10 0 16 -6 14 -12z m434 -5
c0 -10 -9 -58 -20 -107 -27 -124 -76 -171 -115 -113 -12 19 -13 34 -5 75 5 29
16 65 24 81 32 60 116 107 116 64z m-515 -499 c-9 -32 -28 -84 -43 -114 -22
-44 -32 -55 -52 -55 -30 0 -37 28 -20 81 11 31 118 160 126 151 2 -2 -3 -30
-11 -63z"/>
<path d="M755 946 c-9 -45 22 -116 64 -145 40 -29 98 -37 144 -22 41 14 100
75 95 99 -2 11 -44 30 -133 59 -72 23 -138 42 -147 42 -12 1 -19 -10 -23 -33z"/>
</g>
</svg>
