<?xml version="1.0" ?><svg width="32px" height="32px" viewBox="0 0 512 512" xmlns="http://www.w3.org/2000/svg"><g id="Singing"><path d="M215.0141,272.8323a7.975,7.975,0,0,0,5.6567-2.3433l18.5318-18.5322a8,8,0,0,0-11.3135-11.3135l-18.5317,18.5322a8,8,0,0,0,5.6567,13.6568Z"/><path d="M159.4846,331.6753l11.7409,11.741a8.0006,8.0006,0,0,0,10.7271.5317L337.245,216.7148a70.93,70.93,0,1,0-74.1136-74.114l-127.233,155.293a8,8,0,0,0,.5317,10.727l11.741,11.741-26.8225,26.8225a48.4669,48.4669,0,1,0,68.5425,68.5425l52.4033-52.4038a20.4507,20.4507,0,1,1,28.9218,28.9214l-31.1,31.1A8,8,0,1,0,251.43,434.658l31.1-31.1A36.45,36.45,0,1,0,230.9809,352.01l-52.4033,52.4038a32.4672,32.4672,0,0,1-45.9156-45.9155ZM295.1083,107.0544a54.9306,54.9306,0,1,1,0,77.6836A54.7542,54.7542,0,0,1,295.1083,107.0544ZM231.9872,205.86l41.9989,41.9989-96.57,79.1207-24.55-24.55Z"/></g></svg>